<?xml version="1.0" encoding="UTF-8" standalone="no"?>
<svg
   xmlns:dc="http://purl.org/dc/elements/1.1/"
   xmlns:cc="http://creativecommons.org/ns#"
   xmlns:rdf="http://www.w3.org/1999/02/22-rdf-syntax-ns#"
   xmlns:svg="http://www.w3.org/2000/svg"
   xmlns="http://www.w3.org/2000/svg"
   xmlns:sodipodi="http://sodipodi.sourceforge.net/DTD/sodipodi-0.dtd"
   xmlns:inkscape="http://www.inkscape.org/namespaces/inkscape"
   fill="#FFFFFF"
   height="24"
   viewBox="0 0 24 24"
   width="24"
   id="svg2"
   version="1.1"
   inkscape:version="0.91 r13725"
   sodipodi:docname="ic_action_refresh_status.svg">
  <metadata
     id="metadata12">
    <rdf:RDF>
      <cc:Work
         rdf:about="">
        <dc:format>image/svg+xml</dc:format>
        <dc:type
           rdf:resource="http://purl.org/dc/dcmitype/StillImage" />
        <dc:title></dc:title>
      </cc:Work>
    </rdf:RDF>
  </metadata>
  <defs
     id="defs10" />
  <sodipodi:namedview
     pagecolor="#868686"
     bordercolor="#666666"
     borderopacity="1"
     objecttolerance="10"
     gridtolerance="10"
     guidetolerance="10"
     inkscape:pageopacity="0.22352941"
     inkscape:pageshadow="2"
     inkscape:window-width="1863"
     inkscape:window-height="1056"
     id="namedview8"
     showgrid="false"
     inkscape:zoom="27.812867"
     inkscape:cx="11.789377"
     inkscape:cy="13.386822"
     inkscape:window-x="57"
     inkscape:window-y="24"
     inkscape:window-maximized="1"
     inkscape:current-layer="layer3" />
  <g
     inkscape:groupmode="layer"
     id="layer3"
     inkscape:label="Meins"
     style="display:inline">
    <path
       sodipodi:type="arc"
       style="fill:none;stroke:#ffffff;stroke-width:2;stroke-linecap:round;stroke-miterlimit:4;stroke-opacity:1;stroke-dasharray:none"
       id="path3072"
       sodipodi:cx="-14.644068"
       sodipodi:cy="15.966102"
       sodipodi:rx="8.1298704"
       sodipodi:ry="8.1298704"
       d="m -15.531495,7.8848105 a 8.1298704,8.1298704 0 1 1 -0.06903,16.1547035"
       sodipodi:start="4.6030147"
       sodipodi:end="7.9719018"
       transform="matrix(0.0080435,0.99996765,-0.99996765,0.0080435,28.082982,27.410121)"
       sodipodi:open="true" />
    <path
       inkscape:connector-curvature="0"
       d="m 16.019884,8.8018903 c -1.032666,-1.032666 -2.449911,-1.6736311 -4.023836,-1.6736311 -3.1478511,0 -5.690346,2.5496104 -5.690346,5.6974578 0,3.147851 2.5424949,5.697467 5.690346,5.697467 2.656444,0 4.871335,-1.816068 5.505178,-4.2731 l -1.481342,0 c -0.58399,1.659387 -2.165037,2.848733 -4.023836,2.848733 -2.3573277,0 -4.2731009,-1.915773 -4.2731009,-4.2731 0,-2.357327 1.9157732,-4.2730909 4.2731009,-4.2730909 1.182224,0 2.236256,0.4914066 3.005414,1.2676789 l -2.293231,2.293228 4.985284,0 0,-4.9852738 -1.673631,1.6736311 z"
       id="path4" />
  </g>
</svg>
