<?xml version="1.0" encoding="UTF-8" standalone="no"?>
<svg xmlns:cc="http://creativecommons.org/ns#" xmlns:dc="http://purl.org/dc/elements/1.1/"
    xmlns:rdf="http://www.w3.org/1999/02/22-rdf-syntax-ns#" fill="#FFFFFF" height="24" id="svg2"
    version="1.1" viewBox="0 0 24 24" width="24" xmlns="http://www.w3.org/2000/svg">
  <metadata
     id="metadata12">
    <rdf:RDF>
      <cc:Work
         rdf:about="">
        <dc:format>image/svg+xml</dc:format>
        <dc:type
           rdf:resource="http://purl.org/dc/dcmitype/StillImage" />
          <dc:title></dc:title>
      </cc:Work>
    </rdf:RDF>
  </metadata>
  <defs
     id="defs10" />
  <g style="display:inline" id="layer3">
      <g id="g819" transform="matrix(1.0927358,0,0,1.0927358,-1.1127935,-1.9497542)">
          <path
              style="fill:none;stroke:#ffffff;stroke-width:2;stroke-linecap:round;stroke-miterlimit:4;stroke-dasharray:none;stroke-opacity:1"
              d="m -15.531495,7.8848105 a 8.1298704,8.1298704 0 0 1 7.7875308,3.7820625 8.1298704,8.1298704 0 0 1 -0.036992,8.657267 8.1298704,8.1298704 0 0 1 -7.8195665,3.715374"
              id="path3072" transform="rotate(89.539136,0.22574692,27.859952)" />
          <path
              style="color:#000000;font-style:normal;font-variant:normal;font-weight:normal;font-stretch:normal;font-size:medium;line-height:normal;font-family:Sans;-inkscape-font-specification:Sans;text-indent:0;text-align:start;text-decoration:none;text-decoration-line:none;letter-spacing:normal;word-spacing:normal;text-transform:none;writing-mode:lr-tb;direction:ltr;baseline-shift:baseline;text-anchor:start;display:inline;overflow:visible;visibility:visible;fill-opacity:1;fill-rule:nonzero;stroke:none;stroke-width:1;marker:none;enable-background:accumulate"
              d="m 11.485149,6.3599584 v 0.5 5.8124976 l -4.0937493,4.0625 -0.3437498,0.375 0.3437498,0.34375 c 2.5313817,2.531382 6.6465303,2.530159 9.1875043,0 2.531385,-2.531382 2.541791,-6.656528 0,-9.1874976 -1.264685,-1.264684 -2.926046,-1.90625 -4.593754,-1.90625 z"
              id="path3031" />
      </g>
  </g>
</svg>
