<?xml version="1.0" encoding="UTF-8" standalone="no"?>
<svg xmlns:cc="http://creativecommons.org/ns#" xmlns:dc="http://purl.org/dc/elements/1.1/"
    xmlns:inkscape="http://www.inkscape.org/namespaces/inkscape"
    xmlns:rdf="http://www.w3.org/1999/02/22-rdf-syntax-ns#"
    xmlns:sodipodi="http://sodipodi.sourceforge.net/DTD/sodipodi-0.dtd" fill="#FFFFFF" height="24"
    id="svg2" version="1.1" viewBox="0 0 24 24" width="24" xmlns="http://www.w3.org/2000/svg"
    inkscape:version="0.92.3 (2405546, 2018-03-11)"
    sodipodi:docname="ic_stat_bell_active_but_volume_off.svg">
    <metadata id="metadata12">
        <rdf:RDF>
            <cc:Work rdf:about="">
                <dc:format>image/svg+xml</dc:format>
                <dc:type rdf:resource="http://purl.org/dc/dcmitype/StillImage" />
                <dc:title></dc:title>
            </cc:Work>
        </rdf:RDF>
    </metadata>
    <defs id="defs10" />
    <sodipodi:namedview bordercolor="#666666" borderopacity="1" gridtolerance="10"
        guidetolerance="10" id="namedview8" objecttolerance="10" pagecolor="#878787"
        showgrid="false" inkscape:current-layer="layer3" inkscape:cx="12.910417" inkscape:cy="12"
        inkscape:pageopacity="0.22352941" inkscape:pageshadow="2" inkscape:window-height="798"
        inkscape:window-maximized="0" inkscape:window-width="1420" inkscape:window-x="258"
        inkscape:window-y="142" inkscape:zoom="20" />
    <g style="display:inline" id="layer3" inkscape:groupmode="layer" inkscape:label="Ebene">
        <path
            style="fill:none;stroke:#ffffff;stroke-width:2.4000001;stroke-linecap:round;stroke-miterlimit:4;stroke-dasharray:none;stroke-opacity:1"
            d="m -21.950212,2.1352357 a 9.7558441,9.7558441 0 0 1 9.345036,4.5384752 9.7558441,9.7558441 0 0 1 -0.04439,10.3887191 9.7558441,9.7558441 0 0 1 -9.38348,4.458449"
            id="path3072" transform="matrix(-0.0080435,-0.99996765,0.99996765,-0.0080435,0,0)"
            sodipodi:cx="-20.8853" sodipodi:cy="11.832785" sodipodi:end="1.6887165"
            sodipodi:open="true" sodipodi:rx="9.7558441" sodipodi:ry="9.7558441"
            sodipodi:start="4.6030147" sodipodi:type="arc" />
        <path style="stroke-width:0.40000001"
            d="m 20.314869,5 c 0,-0.708 -0.408,-1.316 -1,-1.612 v 0.884 l 0.98,0.98 c 0.012,-0.08 0.02,-0.164 0.02,-0.252 z m 1,0 c 0,0.376 -0.08,0.728 -0.216,1.056 l 0.604,0.604 c 0.264,-0.496 0.412,-1.06 0.412,-1.66 0,-1.712 -1.196,-3.144 -2.8,-3.508 v 0.824 c 1.156,0.344 2,1.416 2,2.684 z m -5.892,-3.6 -0.508,0.508 1.892,1.892 h -1.892 v 2.4 h 1.6 l 2,2 V 5.508 l 1.7,1.7 c -0.268,0.208 -0.568,0.372 -0.9,0.472 v 0.824 c 0.552,-0.124 1.052,-0.38 1.476,-0.724 l 0.816,0.82 0.508,-0.508 -3.6,-3.6 z m 3.092,0.4 -0.836,0.836 0.836,0.836 z"
            id="path2" inkscape:connector-curvature="0" />
    </g>
</svg>
