<?xml version="1.0" encoding="UTF-8" standalone="no"?>
<svg xmlns:cc="http://creativecommons.org/ns#" xmlns:dc="http://purl.org/dc/elements/1.1/"
    xmlns:inkscape="http://www.inkscape.org/namespaces/inkscape"
    xmlns:rdf="http://www.w3.org/1999/02/22-rdf-syntax-ns#"
    xmlns:sodipodi="http://sodipodi.sourceforge.net/DTD/sodipodi-0.dtd" fill="#FFFFFF" height="24"
    id="svg2" version="1.1" viewBox="0 0 24 24" width="24" xmlns="http://www.w3.org/2000/svg"
    inkscape:version="0.92.3 (2405546, 2018-03-11)"
    sodipodi:docname="ic_stat_bell_active_but_in_dndmode.svg">
    <metadata id="metadata12">
        <rdf:RDF>
            <cc:Work rdf:about="">
                <dc:format>image/svg+xml</dc:format>
                <dc:type rdf:resource="http://purl.org/dc/dcmitype/StillImage" />
                <dc:title></dc:title>
            </cc:Work>
        </rdf:RDF>
    </metadata>
    <defs id="defs10" />
    <sodipodi:namedview bordercolor="#666666" borderopacity="1" gridtolerance="10"
        guidetolerance="10" id="namedview8" objecttolerance="10" pagecolor="#878787"
        showgrid="false" inkscape:current-layer="layer3" inkscape:cx="12.910417" inkscape:cy="12"
        inkscape:pageopacity="0.22352941" inkscape:pageshadow="2" inkscape:window-height="798"
        inkscape:window-maximized="0" inkscape:window-width="1420" inkscape:window-x="258"
        inkscape:window-y="142" inkscape:zoom="20" />
    <g style="display:inline" id="layer3" inkscape:groupmode="layer" inkscape:label="Ebene">
        <path
            style="fill:none;stroke:#ffffff;stroke-width:2.4000001;stroke-linecap:round;stroke-miterlimit:4;stroke-dasharray:none;stroke-opacity:1"
            d="m -21.950212,2.1352357 a 9.7558441,9.7558441 0 0 1 9.345036,4.5384752 9.7558441,9.7558441 0 0 1 -0.04439,10.3887191 9.7558441,9.7558441 0 0 1 -9.38348,4.458449"
            id="path3072" transform="matrix(-0.0080435,-0.99996765,0.99996765,-0.0080435,0,0)"
            sodipodi:cx="-20.8853" sodipodi:cy="11.832785" sodipodi:end="1.6887165"
            sodipodi:open="true" sodipodi:rx="9.7558441" sodipodi:ry="9.7558441"
            sodipodi:start="4.6030147" sodipodi:type="arc" />
        <path style="stroke-width:0.40000001"
            d="m 16.514869,4.6 v 0.8 h 4 V 4.6 Z m 2,-3.6 c -2.208,0 -4,1.792 -4,4 0,2.208 1.792,4 4,4 2.208,0 4,-1.792 4,-4 0,-2.208 -1.792,-4 -4,-4 z m 0,7.2 c -1.764,0 -3.2,-1.436 -3.2,-3.2 0,-1.764 1.436,-3.2 3.2,-3.2 1.764,0 3.2,1.436 3.2,3.2 0,1.764 -1.436,3.2 -3.2,3.2 z"
            id="path4" inkscape:connector-curvature="0" />
    </g>
</svg>
