<?xml version="1.0" encoding="UTF-8" standalone="no"?>
<svg xmlns:cc="http://creativecommons.org/ns#" xmlns:dc="http://purl.org/dc/elements/1.1/"
    xmlns:inkscape="http://www.inkscape.org/namespaces/inkscape"
    xmlns:rdf="http://www.w3.org/1999/02/22-rdf-syntax-ns#"
    xmlns:sodipodi="http://sodipodi.sourceforge.net/DTD/sodipodi-0.dtd" fill="#FFFFFF" height="24"
    id="svg2" version="1.1" viewBox="0 0 24 24" width="24" xmlns="http://www.w3.org/2000/svg"
    inkscape:version="0.92.3 (2405546, 2018-03-11)"
    sodipodi:docname="ic_stat_muted_in_do_not_disturb_mode.inkscape.svg">
    <metadata id="metadata12">
        <rdf:RDF>
            <cc:Work rdf:about="">
                <dc:format>image/svg+xml</dc:format>
                <dc:type rdf:resource="http://purl.org/dc/dcmitype/StillImage" />
                <dc:title />
            </cc:Work>
        </rdf:RDF>
    </metadata>
    <defs id="defs10" />
    <sodipodi:namedview bordercolor="#666666" borderopacity="1" gridtolerance="10"
        guidetolerance="10" id="namedview8" objecttolerance="10" pagecolor="#878787" showgrid="true"
        inkscape:current-layer="layer3" inkscape:cx="12.019091" inkscape:cy="11.978249"
        inkscape:pagecheckerboard="true" inkscape:pageopacity="0.22352941" inkscape:pageshadow="2"
        inkscape:window-height="798" inkscape:window-maximized="0" inkscape:window-width="1420"
        inkscape:window-x="258" inkscape:window-y="142" inkscape:zoom="20">
        <inkscape:grid id="grid814" type="xygrid" />
    </sodipodi:namedview>
    <g style="display:inline" id="layer3" inkscape:groupmode="layer" inkscape:label="Ebene">
        <path
            style="fill:none;stroke:#ffffff;stroke-width:1.94383192;stroke-linecap:round;stroke-miterlimit:4;stroke-dasharray:none;stroke-opacity:1"
            d="m -21.950109,2.1224685 a 7.9015503,7.9015503 0 0 1 7.568825,3.675847 7.9015503,7.9015503 0 0 1 -0.03595,8.4141345 7.9015503,7.9015503 0 0 1 -7.599961,3.611032"
            id="path3072" transform="rotate(-90.460864)" sodipodi:cx="-21.087605"
            sodipodi:cy="9.9768038" sodipodi:end="1.6887165" sodipodi:open="true"
            sodipodi:rx="7.9015503" sodipodi:ry="7.9015503" sodipodi:start="4.6030147"
            sodipodi:type="arc" />
        <path style="stroke-width:0.55555558"
            d="m 14.666667,6 v 1.1111111 h 5.555555 V 6 Z m 2.777777,-5 c -3.066666,0 -5.555555,2.4888889 -5.555555,5.5555556 0,3.0666666 2.488889,5.5555554 5.555555,5.5555554 C 20.511111,12.111111 23,9.6222222 23,6.5555556 23,3.4888889 20.511111,1 17.444444,1 Z m 0,10 C 14.994444,11 13,9.0055556 13,6.5555556 c 0,-2.45 1.994444,-4.4444445 4.444444,-4.4444445 2.45,0 4.444445,1.9944445 4.444445,4.4444445 0,2.45 -1.994445,4.4444444 -4.444445,4.4444444 z"
            id="path4" inkscape:connector-curvature="0" />
    </g>
</svg>
