<?xml version="1.0" encoding="UTF-8" standalone="no"?>
<svg xmlns:cc="http://creativecommons.org/ns#" xmlns:dc="http://purl.org/dc/elements/1.1/"
    xmlns:rdf="http://www.w3.org/1999/02/22-rdf-syntax-ns#" fill="#FFFFFF" height="24" id="svg2"
    version="1.1" viewBox="0 0 24 24" width="24" xmlns="http://www.w3.org/2000/svg">
    <metadata id="metadata12">
        <rdf:RDF>
            <cc:Work rdf:about="">
                <dc:format>image/svg+xml</dc:format>
                <dc:type rdf:resource="http://purl.org/dc/dcmitype/StillImage" />
                <dc:title></dc:title>
            </cc:Work>
        </rdf:RDF>
    </metadata>
    <defs id="defs10" />
    <g style="display:inline" id="layer3">
        <path
            style="fill:none;stroke:#ffffff;stroke-width:1.94383192;stroke-linecap:round;stroke-miterlimit:4;stroke-dasharray:none;stroke-opacity:1"
            d="m -21.950109,2.1224685 a 7.9015503,7.9015503 0 0 1 7.568825,3.675847 7.9015503,7.9015503 0 0 1 -0.03595,8.4141345 7.9015503,7.9015503 0 0 1 -7.599961,3.611032"
            id="path3072" transform="rotate(-90.460864)" />
        <path
            style="stroke:#ffffff;stroke-width:0.81529129;stroke-miterlimit:4;stroke-dasharray:none;stroke-opacity:1"
            d="M 17.34065,11.443611 C 17.170471,11.384373 16.947327,11.191534 16.23481,10.487953 15.743859,10.003158 14.93972,9.1887654 14.447837,8.6781924 l -0.894336,-0.928315 0.128751,-0.1230327 0.128752,-0.1230313 1.326574,0.7602061 c 0.729618,0.4181134 1.353227,0.7709109 1.385799,0.7839943 0.04703,0.018892 0.05922,-0.6389922 0.05922,-3.1956216 0,-3.0587426 0.0043,-3.223323 0.08664,-3.2978194 0.108162,-0.097891 0.170447,-0.09882 0.265308,-0.00396 0.06522,0.065227 0.07445,0.3117496 0.07445,1.9898636 v 1.9154141 h 0.710665 0.710666 V 4.0190229 c 0,-1.4686879 0.01835,-2.4851514 0.0462,-2.558396 0.04583,-0.1205169 0.150245,-0.152253 0.305253,-0.092771 0.06704,0.025726 0.07494,0.2954022 0.07494,2.558396 V 6.45589 h 0.734355 0.734353 V 4.1912359 c 0,-1.6982274 0.01422,-2.2788741 0.05685,-2.3215072 0.08704,-0.087038 0.265679,-0.067649 0.320501,0.034787 0.03182,0.059446 0.04905,0.8750062 0.04905,2.3215073 V 6.45589 h 0.710665 0.710666 V 4.8958102 c 0,-1.3550844 0.0098,-1.569863 0.07445,-1.6345308 0.08867,-0.088669 0.216408,-0.096286 0.295097,-0.017597 0.04321,0.043205 0.05685,0.9071512 0.05685,3.5989283 0,3.4288243 -0.003,3.5501903 -0.09499,3.7959233 -0.125283,0.334843 -0.456951,0.666513 -0.791794,0.791794 -0.239632,0.08966 -0.363198,0.09477 -2.206402,0.09123 -1.643192,-0.0031 -1.98633,-0.0155 -2.165752,-0.07795 z"
            id="path845" />
    </g>
</svg>
